<svg id="visual" viewBox="0 0 960 540" width="960" height="540" xmlns="http://www.w3.org/2000/svg" xmlns:xlink="http://www.w3.org/1999/xlink" version="1.1"><path d="M0 82L8.5 82C17 82 34 82 50.8 81.2C67.7 80.3 84.3 78.7 101.2 77.8C118 77 135 77 151.8 77C168.7 77 185.3 77 202.2 76C219 75 236 73 252.8 73C269.7 73 286.3 75 303.2 75C320 75 337 73 353.8 73.8C370.7 74.7 387.3 78.3 404.2 79.3C421 80.3 438 78.7 454.8 78.7C471.7 78.7 488.3 80.3 505.2 80.3C522 80.3 539 78.7 555.8 76.8C572.7 75 589.3 73 606.2 73.8C623 74.7 640 78.3 656.8 79.3C673.7 80.3 690.3 78.7 707.2 78.7C724 78.7 741 80.3 757.8 80.3C774.7 80.3 791.3 78.7 808.2 78.7C825 78.7 842 80.3 858.8 80.3C875.7 80.3 892.3 78.7 909.2 76.8C926 75 943 73 951.5 72L960 71L960 0L951.5 0C943 0 926 0 909.2 0C892.3 0 875.7 0 858.8 0C842 0 825 0 808.2 0C791.3 0 774.7 0 757.8 0C741 0 724 0 707.2 0C690.3 0 673.7 0 656.8 0C640 0 623 0 606.2 0C589.3 0 572.7 0 555.8 0C539 0 522 0 505.2 0C488.3 0 471.7 0 454.8 0C438 0 421 0 404.2 0C387.3 0 370.7 0 353.8 0C337 0 320 0 303.2 0C286.3 0 269.7 0 252.8 0C236 0 219 0 202.2 0C185.3 0 168.7 0 151.8 0C135 0 118 0 101.2 0C84.3 0 67.7 0 50.8 0C34 0 17 0 8.5 0L0 0Z" fill="#4b352a"></path><path d="M0 217L8.5 216.2C17 215.3 34 213.7 50.8 214.5C67.7 215.3 84.3 218.7 101.2 218.7C118 218.7 135 215.3 151.8 213.7C168.7 212 185.3 212 202.2 216.5C219 221 236 230 252.8 231.7C269.7 233.3 286.3 227.7 303.2 224.8C320 222 337 222 353.8 225.7C370.7 229.3 387.3 236.7 404.2 236.7C421 236.7 438 229.3 454.8 224.8C471.7 220.3 488.3 218.7 505.2 219.7C522 220.7 539 224.3 555.8 226.2C572.7 228 589.3 228 606.2 228.8C623 229.7 640 231.3 656.8 233.2C673.7 235 690.3 237 707.2 234.3C724 231.7 741 224.3 757.8 221.5C774.7 218.7 791.3 220.3 808.2 223C825 225.7 842 229.3 858.8 229.3C875.7 229.3 892.3 225.7 909.2 222.2C926 218.7 943 215.3 951.5 213.7L960 212L960 69L951.5 70C943 71 926 73 909.2 74.8C892.3 76.7 875.7 78.3 858.8 78.3C842 78.3 825 76.7 808.2 76.7C791.3 76.7 774.7 78.3 757.8 78.3C741 78.3 724 76.7 707.2 76.7C690.3 76.7 673.7 78.3 656.8 77.3C640 76.3 623 72.7 606.2 71.8C589.3 71 572.7 73 555.8 74.8C539 76.7 522 78.3 505.2 78.3C488.3 78.3 471.7 76.7 454.8 76.7C438 76.7 421 78.3 404.2 77.3C387.3 76.3 370.7 72.7 353.8 71.8C337 71 320 73 303.2 73C286.3 73 269.7 71 252.8 71C236 71 219 73 202.2 74C185.3 75 168.7 75 151.8 75C135 75 118 75 101.2 75.8C84.3 76.7 67.7 78.3 50.8 79.2C34 80 17 80 8.5 80L0 80Z" fill="#6b563f"></path><path d="M0 309L8.5 309C17 309 34 309 50.8 309C67.7 309 84.3 309 101.2 309.8C118 310.7 135 312.3 151.8 312.3C168.7 312.3 185.3 310.7 202.2 313.3C219 316 236 323 252.8 323C269.7 323 286.3 316 303.2 315.2C320 314.3 337 319.7 353.8 323.2C370.7 326.7 387.3 328.3 404.2 325.7C421 323 438 316 454.8 313.3C471.7 310.7 488.3 312.3 505.2 313.2C522 314 539 314 555.8 316.7C572.7 319.3 589.3 324.7 606.2 325.7C623 326.7 640 323.3 656.8 323.3C673.7 323.3 690.3 326.7 707.2 325.7C724 324.7 741 319.3 757.8 317.7C774.7 316 791.3 318 808.2 319C825 320 842 320 858.8 320.8C875.7 321.7 892.3 323.3 909.2 321.5C926 319.7 943 314.3 951.5 311.7L960 309L960 210L951.5 211.7C943 213.3 926 216.7 909.2 220.2C892.3 223.7 875.7 227.3 858.8 227.3C842 227.3 825 223.7 808.2 221C791.3 218.3 774.7 216.7 757.8 219.5C741 222.3 724 229.7 707.2 232.3C690.3 235 673.7 233 656.8 231.2C640 229.3 623 227.7 606.2 226.8C589.3 226 572.7 226 555.8 224.2C539 222.3 522 218.7 505.2 217.7C488.3 216.7 471.7 218.3 454.8 222.8C438 227.3 421 234.7 404.2 234.7C387.3 234.7 370.7 227.3 353.8 223.7C337 220 320 220 303.2 222.8C286.3 225.7 269.7 231.3 252.8 229.7C236 228 219 219 202.2 214.5C185.3 210 168.7 210 151.8 211.7C135 213.3 118 216.7 101.2 216.7C84.3 216.7 67.7 213.3 50.8 212.5C34 211.7 17 213.3 8.5 214.2L0 215Z" fill="#887b58"></path><path d="M0 482L8.5 481C17 480 34 478 50.8 477C67.7 476 84.3 476 101.2 477C118 478 135 480 151.8 481C168.7 482 185.3 482 202.2 482C219 482 236 482 252.8 481C269.7 480 286.3 478 303.2 477C320 476 337 476 353.8 476C370.7 476 387.3 476 404.2 476C421 476 438 476 454.8 477C471.7 478 488.3 480 505.2 480C522 480 539 478 555.8 478C572.7 478 589.3 480 606.2 481C623 482 640 482 656.8 481C673.7 480 690.3 478 707.2 478C724 478 741 480 757.8 480C774.7 480 791.3 478 808.2 478C825 478 842 480 858.8 481C875.7 482 892.3 482 909.2 481C926 480 943 478 951.5 477L960 476L960 307L951.5 309.7C943 312.3 926 317.7 909.2 319.5C892.3 321.3 875.7 319.7 858.8 318.8C842 318 825 318 808.2 317C791.3 316 774.7 314 757.8 315.7C741 317.3 724 322.7 707.2 323.7C690.3 324.7 673.7 321.3 656.8 321.3C640 321.3 623 324.7 606.2 323.7C589.3 322.7 572.7 317.3 555.8 314.7C539 312 522 312 505.2 311.2C488.3 310.3 471.7 308.7 454.8 311.3C438 314 421 321 404.2 323.7C387.3 326.3 370.7 324.7 353.8 321.2C337 317.7 320 312.3 303.2 313.2C286.3 314 269.7 321 252.8 321C236 321 219 314 202.2 311.3C185.3 308.7 168.7 310.3 151.8 310.3C135 310.3 118 308.7 101.2 307.8C84.3 307 67.7 307 50.8 307C34 307 17 307 8.5 307L0 307Z" fill="#a0a376"></path><path d="M0 541L8.5 541C17 541 34 541 50.8 541C67.7 541 84.3 541 101.2 541C118 541 135 541 151.8 541C168.7 541 185.3 541 202.2 541C219 541 236 541 252.8 541C269.7 541 286.3 541 303.2 541C320 541 337 541 353.8 541C370.7 541 387.3 541 404.2 541C421 541 438 541 454.8 541C471.7 541 488.3 541 505.2 541C522 541 539 541 555.8 541C572.7 541 589.3 541 606.2 541C623 541 640 541 656.8 541C673.7 541 690.3 541 707.2 541C724 541 741 541 757.8 541C774.7 541 791.3 541 808.2 541C825 541 842 541 858.8 541C875.7 541 892.3 541 909.2 541C926 541 943 541 951.5 541L960 541L960 474L951.5 475C943 476 926 478 909.2 479C892.3 480 875.7 480 858.8 479C842 478 825 476 808.2 476C791.3 476 774.7 478 757.8 478C741 478 724 476 707.2 476C690.3 476 673.7 478 656.8 479C640 480 623 480 606.2 479C589.3 478 572.7 476 555.8 476C539 476 522 478 505.2 478C488.3 478 471.7 476 454.8 475C438 474 421 474 404.2 474C387.3 474 370.7 474 353.8 474C337 474 320 474 303.2 475C286.3 476 269.7 478 252.8 479C236 480 219 480 202.2 480C185.3 480 168.7 480 151.8 479C135 478 118 476 101.2 475C84.3 474 67.7 474 50.8 475C34 476 17 478 8.5 479L0 480Z" fill="#b2cd9c"></path></svg>